<mxfile host="Electron" modified="2024-04-22T17:06:28.865Z" agent="Mozilla/5.0 (X11; Linux x86_64) AppleWebKit/537.36 (KHTML, like Gecko) draw.io/24.2.5 Chrome/120.0.6099.109 Electron/28.1.0 Safari/537.36" etag="6bTZw7GOM6rS30sRJRdc" version="24.2.5" type="device">
  <diagram name="Page-1" id="SFyVQGpwPZ1UM19bA2Kv">
    <mxGraphModel dx="1728" dy="1136" grid="1" gridSize="10" guides="1" tooltips="1" connect="1" arrows="1" fold="1" page="1" pageScale="1" pageWidth="1600" pageHeight="1200" math="0" shadow="0">
      <root>
        <mxCell id="0" />
        <mxCell id="1" parent="0" />
        <mxCell id="jMQMwRKZ0cA5KLBAXmWi-1" value="&lt;b&gt;&lt;font style=&quot;font-size: 16px;&quot;&gt;Server flow diagram - description of a general workflow of a program&lt;/font&gt;&lt;/b&gt;" style="text;html=1;align=left;verticalAlign=middle;whiteSpace=wrap;rounded=0;" vertex="1" parent="1">
          <mxGeometry x="90" y="120" width="540" height="40" as="geometry" />
        </mxCell>
        <mxCell id="jMQMwRKZ0cA5KLBAXmWi-11" value="&lt;font style=&quot;font-size: 16px;&quot;&gt;Server is based on poll() function. After creation of welcome sockets (1 for UDP and 1 for TCP) server waits until new client will arive.&lt;/font&gt;&lt;div&gt;&lt;font style=&quot;font-size: 16px;&quot;&gt;All active clients are identified by file descriptor assigned to them, which is also being checked within poll.&lt;/font&gt;&lt;/div&gt;&lt;div&gt;&lt;font style=&quot;font-size: 16px;&quot;&gt;If any poll event occured -&amp;gt; server checks if any message timed out for&amp;nbsp;&lt;/font&gt;&lt;span style=&quot;color: rgb(86, 156, 214); background-color: rgb(31, 31, 31); font-family: &amp;quot;Droid Sans Mono&amp;quot;, &amp;quot;monospace&amp;quot;, monospace; font-size: 14px; white-space: pre;&quot;&gt;POLL_INTERVAL&lt;/span&gt;&lt;span style=&quot;background-color: initial; font-size: 16px;&quot;&gt;&amp;nbsp;time period.&lt;/span&gt;&lt;br&gt;&lt;/div&gt;" style="text;html=1;align=left;verticalAlign=middle;whiteSpace=wrap;rounded=0;" vertex="1" parent="1">
          <mxGeometry x="90" y="190" width="240" height="260" as="geometry" />
        </mxCell>
        <mxCell id="jMQMwRKZ0cA5KLBAXmWi-13" value="&lt;div style=&quot;font-family: &amp;quot;Droid Sans Mono&amp;quot;, &amp;quot;monospace&amp;quot;, monospace; font-size: 14px; line-height: 19px; white-space: pre;&quot;&gt;&lt;div style=&quot;background-color: rgb(31, 31, 31); line-height: 19px;&quot;&gt;&lt;font color=&quot;#dcdcaa&quot;&gt;main()&lt;/font&gt;&lt;/div&gt;&lt;/div&gt;" style="swimlane;fontStyle=0;childLayout=stackLayout;horizontal=1;startSize=30;horizontalStack=0;resizeParent=1;resizeParentMax=0;resizeLast=0;collapsible=1;marginBottom=0;whiteSpace=wrap;html=1;" vertex="1" parent="1">
          <mxGeometry x="90" y="460" width="240" height="170" as="geometry" />
        </mxCell>
        <mxCell id="jMQMwRKZ0cA5KLBAXmWi-14" value="&lt;font style=&quot;font-size: 16px;&quot;&gt;Listen to TCP welcome&lt;/font&gt;" style="text;strokeColor=none;fillColor=none;align=left;verticalAlign=middle;spacingLeft=4;spacingRight=4;overflow=hidden;points=[[0,0.5],[1,0.5]];portConstraint=eastwest;rotatable=0;whiteSpace=wrap;html=1;" vertex="1" parent="jMQMwRKZ0cA5KLBAXmWi-13">
          <mxGeometry y="30" width="240" height="30" as="geometry" />
        </mxCell>
        <mxCell id="jMQMwRKZ0cA5KLBAXmWi-15" value="&lt;font style=&quot;font-size: 16px;&quot;&gt;Listen to UDP welcome socket&lt;/font&gt;" style="text;strokeColor=none;fillColor=none;align=left;verticalAlign=middle;spacingLeft=4;spacingRight=4;overflow=hidden;points=[[0,0.5],[1,0.5]];portConstraint=eastwest;rotatable=0;whiteSpace=wrap;html=1;" vertex="1" parent="jMQMwRKZ0cA5KLBAXmWi-13">
          <mxGeometry y="60" width="240" height="30" as="geometry" />
        </mxCell>
        <mxCell id="jMQMwRKZ0cA5KLBAXmWi-17" value="&lt;font style=&quot;font-size: 16px;&quot;&gt;Listen&amp;nbsp;to&amp;nbsp;&lt;/font&gt;&lt;span style=&quot;color: rgb(156, 220, 254); background-color: rgb(31, 31, 31); font-family: &amp;quot;Droid Sans Mono&amp;quot;, &amp;quot;monospace&amp;quot;, monospace; font-size: 14px; white-space: pre;&quot;&gt;pollfd&lt;/span&gt;&lt;span style=&quot;font-size: 16px; background-color: initial;&quot;&gt;&amp;nbsp;list&lt;/span&gt;" style="text;strokeColor=none;fillColor=none;align=left;verticalAlign=middle;spacingLeft=4;spacingRight=4;overflow=hidden;points=[[0,0.5],[1,0.5]];portConstraint=eastwest;rotatable=0;whiteSpace=wrap;html=1;" vertex="1" parent="jMQMwRKZ0cA5KLBAXmWi-13">
          <mxGeometry y="90" width="240" height="30" as="geometry" />
        </mxCell>
        <mxCell id="jMQMwRKZ0cA5KLBAXmWi-16" value="&lt;span style=&quot;font-size: 16px;&quot;&gt;Check if sent messages need retransmission&lt;/span&gt;" style="text;strokeColor=none;fillColor=none;align=left;verticalAlign=middle;spacingLeft=4;spacingRight=4;overflow=hidden;points=[[0,0.5],[1,0.5]];portConstraint=eastwest;rotatable=0;whiteSpace=wrap;html=1;" vertex="1" parent="jMQMwRKZ0cA5KLBAXmWi-13">
          <mxGeometry y="120" width="240" height="50" as="geometry" />
        </mxCell>
        <mxCell id="jMQMwRKZ0cA5KLBAXmWi-21" value="&lt;div style=&quot;font-family: &amp;quot;Droid Sans Mono&amp;quot;, &amp;quot;monospace&amp;quot;, monospace; font-size: 14px; line-height: 19px; white-space: pre;&quot;&gt;&lt;div style=&quot;color: rgb(204, 204, 204); background-color: rgb(31, 31, 31); line-height: 19px;&quot;&gt;&lt;span style=&quot;color: #dcdcaa;&quot;&gt;tcp_polling()&lt;/span&gt;&lt;/div&gt;&lt;/div&gt;" style="swimlane;fontStyle=0;childLayout=stackLayout;horizontal=1;startSize=30;horizontalStack=0;resizeParent=1;resizeParentMax=0;resizeLast=0;collapsible=1;marginBottom=0;whiteSpace=wrap;html=1;" vertex="1" parent="1">
          <mxGeometry x="410" y="280" width="240" height="110" as="geometry" />
        </mxCell>
        <mxCell id="jMQMwRKZ0cA5KLBAXmWi-22" value="&lt;span style=&quot;font-size: 16px;&quot;&gt;Accept communication on new file descriptor and save it to&amp;nbsp;&lt;/span&gt;&lt;span style=&quot;color: rgb(156, 220, 254); background-color: rgb(31, 31, 31); font-family: &amp;quot;Droid Sans Mono&amp;quot;, &amp;quot;monospace&amp;quot;, monospace; font-size: 14px; white-space: pre;&quot;&gt;pollfd&lt;/span&gt;&lt;span style=&quot;font-size: 16px; background-color: initial;&quot;&gt;&amp;nbsp;list. Create client record.&lt;/span&gt;" style="text;strokeColor=none;fillColor=none;align=left;verticalAlign=middle;spacingLeft=4;spacingRight=4;overflow=hidden;points=[[0,0.5],[1,0.5]];portConstraint=eastwest;rotatable=0;whiteSpace=wrap;html=1;" vertex="1" parent="jMQMwRKZ0cA5KLBAXmWi-21">
          <mxGeometry y="30" width="240" height="80" as="geometry" />
        </mxCell>
        <mxCell id="jMQMwRKZ0cA5KLBAXmWi-27" style="edgeStyle=orthogonalEdgeStyle;rounded=0;orthogonalLoop=1;jettySize=auto;html=1;" edge="1" parent="1" source="jMQMwRKZ0cA5KLBAXmWi-14" target="jMQMwRKZ0cA5KLBAXmWi-21">
          <mxGeometry relative="1" as="geometry">
            <Array as="points">
              <mxPoint x="370" y="505" />
              <mxPoint x="370" y="335" />
            </Array>
          </mxGeometry>
        </mxCell>
        <mxCell id="jMQMwRKZ0cA5KLBAXmWi-28" value="&lt;span style=&quot;font-size: 16px;&quot;&gt;When someone arrives at tcp welcome, the new fd and client are created. No messages are read in this function.&lt;/span&gt;" style="text;html=1;align=left;verticalAlign=middle;whiteSpace=wrap;rounded=0;" vertex="1" parent="1">
          <mxGeometry x="410" y="180" width="240" height="90" as="geometry" />
        </mxCell>
        <mxCell id="jMQMwRKZ0cA5KLBAXmWi-29" value="&lt;div style=&quot;font-family: &amp;quot;Droid Sans Mono&amp;quot;, &amp;quot;monospace&amp;quot;, monospace; font-size: 14px; line-height: 19px; white-space: pre;&quot;&gt;&lt;div style=&quot;color: rgb(204, 204, 204); background-color: rgb(31, 31, 31); line-height: 19px;&quot;&gt;&lt;span style=&quot;color: #dcdcaa;&quot;&gt;udp_polling&lt;/span&gt;()&lt;/div&gt;&lt;/div&gt;" style="swimlane;fontStyle=0;childLayout=stackLayout;horizontal=1;startSize=30;horizontalStack=0;resizeParent=1;resizeParentMax=0;resizeLast=0;collapsible=1;marginBottom=0;whiteSpace=wrap;html=1;" vertex="1" parent="1">
          <mxGeometry x="410" y="520" width="240" height="150" as="geometry" />
        </mxCell>
        <mxCell id="jMQMwRKZ0cA5KLBAXmWi-30" value="&lt;span style=&quot;font-size: 16px;&quot;&gt;Accept communication on new file descriptor and save it to&amp;nbsp;&lt;/span&gt;&lt;span style=&quot;color: rgb(156, 220, 254); background-color: rgb(31, 31, 31); font-family: &amp;quot;Droid Sans Mono&amp;quot;, &amp;quot;monospace&amp;quot;, monospace; font-size: 14px; white-space: pre;&quot;&gt;pollfd&lt;/span&gt;&lt;span style=&quot;font-size: 16px; background-color: initial;&quot;&gt;&amp;nbsp;list. Create client record.&lt;/span&gt;" style="text;strokeColor=none;fillColor=none;align=left;verticalAlign=middle;spacingLeft=4;spacingRight=4;overflow=hidden;points=[[0,0.5],[1,0.5]];portConstraint=eastwest;rotatable=0;whiteSpace=wrap;html=1;" vertex="1" parent="jMQMwRKZ0cA5KLBAXmWi-29">
          <mxGeometry y="30" width="240" height="80" as="geometry" />
        </mxCell>
        <mxCell id="jMQMwRKZ0cA5KLBAXmWi-32" value="&lt;span style=&quot;font-size: 16px;&quot;&gt;Read first message of client.&lt;/span&gt;" style="text;strokeColor=none;fillColor=none;align=left;verticalAlign=middle;spacingLeft=4;spacingRight=4;overflow=hidden;points=[[0,0.5],[1,0.5]];portConstraint=eastwest;rotatable=0;whiteSpace=wrap;html=1;" vertex="1" parent="jMQMwRKZ0cA5KLBAXmWi-29">
          <mxGeometry y="110" width="240" height="40" as="geometry" />
        </mxCell>
        <mxCell id="jMQMwRKZ0cA5KLBAXmWi-31" value="&lt;span style=&quot;font-size: 16px;&quot;&gt;When someone arrives at udp welcome, the new fd and client are created. First message is read to define client address&lt;/span&gt;" style="text;html=1;align=left;verticalAlign=middle;whiteSpace=wrap;rounded=0;" vertex="1" parent="1">
          <mxGeometry x="410" y="420" width="240" height="90" as="geometry" />
        </mxCell>
        <mxCell id="jMQMwRKZ0cA5KLBAXmWi-33" style="edgeStyle=orthogonalEdgeStyle;rounded=0;orthogonalLoop=1;jettySize=auto;html=1;exitX=1;exitY=0.5;exitDx=0;exitDy=0;" edge="1" parent="1" source="jMQMwRKZ0cA5KLBAXmWi-15" target="jMQMwRKZ0cA5KLBAXmWi-29">
          <mxGeometry relative="1" as="geometry" />
        </mxCell>
        <mxCell id="jMQMwRKZ0cA5KLBAXmWi-34" value="&lt;div style=&quot;font-family: &amp;quot;Droid Sans Mono&amp;quot;, &amp;quot;monospace&amp;quot;, monospace; font-size: 14px; line-height: 19px; white-space: pre;&quot;&gt;&lt;div style=&quot;color: rgb(204, 204, 204); background-color: rgb(31, 31, 31); line-height: 19px;&quot;&gt;&lt;span style=&quot;color: #dcdcaa;&quot;&gt;process_msg()&lt;/span&gt;&lt;/div&gt;&lt;/div&gt;" style="swimlane;fontStyle=0;childLayout=stackLayout;horizontal=1;startSize=30;horizontalStack=0;resizeParent=1;resizeParentMax=0;resizeLast=0;collapsible=1;marginBottom=0;whiteSpace=wrap;html=1;" vertex="1" parent="1">
          <mxGeometry x="730" y="770" width="240" height="190" as="geometry" />
        </mxCell>
        <mxCell id="jMQMwRKZ0cA5KLBAXmWi-35" value="&lt;span style=&quot;font-size: 16px;&quot;&gt;Confrim message (if UDP)&lt;/span&gt;" style="text;strokeColor=none;fillColor=none;align=left;verticalAlign=middle;spacingLeft=4;spacingRight=4;overflow=hidden;points=[[0,0.5],[1,0.5]];portConstraint=eastwest;rotatable=0;whiteSpace=wrap;html=1;" vertex="1" parent="jMQMwRKZ0cA5KLBAXmWi-34">
          <mxGeometry y="30" width="240" height="40" as="geometry" />
        </mxCell>
        <mxCell id="jMQMwRKZ0cA5KLBAXmWi-36" value="&lt;span style=&quot;font-size: 16px;&quot;&gt;Check if message is allowed&lt;/span&gt;" style="text;strokeColor=none;fillColor=none;align=left;verticalAlign=middle;spacingLeft=4;spacingRight=4;overflow=hidden;points=[[0,0.5],[1,0.5]];portConstraint=eastwest;rotatable=0;whiteSpace=wrap;html=1;" vertex="1" parent="jMQMwRKZ0cA5KLBAXmWi-34">
          <mxGeometry y="70" width="240" height="40" as="geometry" />
        </mxCell>
        <mxCell id="jMQMwRKZ0cA5KLBAXmWi-58" value="&lt;span style=&quot;font-size: 16px;&quot;&gt;Execute message&lt;/span&gt;" style="text;strokeColor=none;fillColor=none;align=left;verticalAlign=middle;spacingLeft=4;spacingRight=4;overflow=hidden;points=[[0,0.5],[1,0.5]];portConstraint=eastwest;rotatable=0;whiteSpace=wrap;html=1;" vertex="1" parent="jMQMwRKZ0cA5KLBAXmWi-34">
          <mxGeometry y="110" width="240" height="40" as="geometry" />
        </mxCell>
        <mxCell id="jMQMwRKZ0cA5KLBAXmWi-59" value="&lt;span style=&quot;font-size: 16px;&quot;&gt;Close client (if error)&lt;/span&gt;" style="text;strokeColor=none;fillColor=none;align=left;verticalAlign=middle;spacingLeft=4;spacingRight=4;overflow=hidden;points=[[0,0.5],[1,0.5]];portConstraint=eastwest;rotatable=0;whiteSpace=wrap;html=1;" vertex="1" parent="jMQMwRKZ0cA5KLBAXmWi-34">
          <mxGeometry y="150" width="240" height="40" as="geometry" />
        </mxCell>
        <mxCell id="jMQMwRKZ0cA5KLBAXmWi-37" value="&lt;span style=&quot;font-size: 16px;&quot;&gt;Receives parsed message, prepared to be executed. Provides checks if message can be executed withing current client state. Confirms it if protocol is UDP. Executes message. If execution ended up in error state -&amp;gt; initiates client close.&lt;/span&gt;" style="text;html=1;align=left;verticalAlign=middle;whiteSpace=wrap;rounded=0;" vertex="1" parent="1">
          <mxGeometry x="730" y="600" width="240" height="160" as="geometry" />
        </mxCell>
        <mxCell id="jMQMwRKZ0cA5KLBAXmWi-38" style="edgeStyle=orthogonalEdgeStyle;rounded=0;orthogonalLoop=1;jettySize=auto;html=1;" edge="1" parent="1" source="jMQMwRKZ0cA5KLBAXmWi-32" target="jMQMwRKZ0cA5KLBAXmWi-34">
          <mxGeometry relative="1" as="geometry">
            <Array as="points">
              <mxPoint x="690" y="650" />
              <mxPoint x="690" y="830" />
            </Array>
          </mxGeometry>
        </mxCell>
        <mxCell id="jMQMwRKZ0cA5KLBAXmWi-39" value="&lt;div style=&quot;font-family: &amp;quot;Droid Sans Mono&amp;quot;, &amp;quot;monospace&amp;quot;, monospace; font-size: 14px; line-height: 19px; white-space: pre;&quot;&gt;&lt;div style=&quot;color: rgb(204, 204, 204); background-color: rgb(31, 31, 31); line-height: 19px;&quot;&gt;&lt;span style=&quot;color: #dcdcaa;&quot;&gt;process_msg_sock()&lt;/span&gt;&lt;/div&gt;&lt;/div&gt;" style="swimlane;fontStyle=0;childLayout=stackLayout;horizontal=1;startSize=30;horizontalStack=0;resizeParent=1;resizeParentMax=0;resizeLast=0;collapsible=1;marginBottom=0;whiteSpace=wrap;html=1;" vertex="1" parent="1">
          <mxGeometry x="410" y="810" width="240" height="110" as="geometry" />
        </mxCell>
        <mxCell id="jMQMwRKZ0cA5KLBAXmWi-40" value="&lt;span style=&quot;font-size: 16px;&quot;&gt;Find client by FD.&lt;/span&gt;" style="text;strokeColor=none;fillColor=none;align=left;verticalAlign=middle;spacingLeft=4;spacingRight=4;overflow=hidden;points=[[0,0.5],[1,0.5]];portConstraint=eastwest;rotatable=0;whiteSpace=wrap;html=1;" vertex="1" parent="jMQMwRKZ0cA5KLBAXmWi-39">
          <mxGeometry y="30" width="240" height="40" as="geometry" />
        </mxCell>
        <mxCell id="jMQMwRKZ0cA5KLBAXmWi-41" value="&lt;span style=&quot;font-size: 16px;&quot;&gt;Read message on FD&lt;/span&gt;" style="text;strokeColor=none;fillColor=none;align=left;verticalAlign=middle;spacingLeft=4;spacingRight=4;overflow=hidden;points=[[0,0.5],[1,0.5]];portConstraint=eastwest;rotatable=0;whiteSpace=wrap;html=1;" vertex="1" parent="jMQMwRKZ0cA5KLBAXmWi-39">
          <mxGeometry y="70" width="240" height="40" as="geometry" />
        </mxCell>
        <mxCell id="jMQMwRKZ0cA5KLBAXmWi-42" value="&lt;span style=&quot;font-size: 16px;&quot;&gt;Receives FD, reads message and finds his client and then passes message further for execution. Sends error if message cannot be processed&lt;/span&gt;" style="text;html=1;align=left;verticalAlign=middle;whiteSpace=wrap;rounded=0;" vertex="1" parent="1">
          <mxGeometry x="410" y="700" width="240" height="100" as="geometry" />
        </mxCell>
        <mxCell id="jMQMwRKZ0cA5KLBAXmWi-45" style="edgeStyle=orthogonalEdgeStyle;rounded=0;orthogonalLoop=1;jettySize=auto;html=1;exitX=1;exitY=0.5;exitDx=0;exitDy=0;" edge="1" parent="1" source="jMQMwRKZ0cA5KLBAXmWi-41" target="jMQMwRKZ0cA5KLBAXmWi-34">
          <mxGeometry relative="1" as="geometry">
            <Array as="points">
              <mxPoint x="690" y="900" />
              <mxPoint x="690" y="845" />
            </Array>
          </mxGeometry>
        </mxCell>
        <mxCell id="jMQMwRKZ0cA5KLBAXmWi-46" style="edgeStyle=orthogonalEdgeStyle;rounded=0;orthogonalLoop=1;jettySize=auto;html=1;exitX=1;exitY=0.5;exitDx=0;exitDy=0;" edge="1" parent="1" source="jMQMwRKZ0cA5KLBAXmWi-17" target="jMQMwRKZ0cA5KLBAXmWi-39">
          <mxGeometry relative="1" as="geometry">
            <Array as="points">
              <mxPoint x="360" y="565" />
              <mxPoint x="360" y="865" />
            </Array>
          </mxGeometry>
        </mxCell>
        <mxCell id="jMQMwRKZ0cA5KLBAXmWi-47" value="&lt;div style=&quot;font-family: &amp;quot;Droid Sans Mono&amp;quot;, &amp;quot;monospace&amp;quot;, monospace; font-size: 14px; line-height: 19px; white-space: pre;&quot;&gt;&lt;div style=&quot;color: rgb(204, 204, 204); background-color: rgb(31, 31, 31); line-height: 19px;&quot;&gt;&lt;span style=&quot;color: #dcdcaa;&quot;&gt;udp_timeout()&lt;/span&gt;&lt;/div&gt;&lt;/div&gt;" style="swimlane;fontStyle=0;childLayout=stackLayout;horizontal=1;startSize=30;horizontalStack=0;resizeParent=1;resizeParentMax=0;resizeLast=0;collapsible=1;marginBottom=0;whiteSpace=wrap;html=1;" vertex="1" parent="1">
          <mxGeometry x="90" y="810" width="240" height="150" as="geometry" />
        </mxCell>
        <mxCell id="jMQMwRKZ0cA5KLBAXmWi-48" value="&lt;span style=&quot;font-size: 16px;&quot;&gt;Retransmit message if needed&lt;/span&gt;" style="text;strokeColor=none;fillColor=none;align=left;verticalAlign=middle;spacingLeft=4;spacingRight=4;overflow=hidden;points=[[0,0.5],[1,0.5]];portConstraint=eastwest;rotatable=0;whiteSpace=wrap;html=1;" vertex="1" parent="jMQMwRKZ0cA5KLBAXmWi-47">
          <mxGeometry y="30" width="240" height="40" as="geometry" />
        </mxCell>
        <mxCell id="jMQMwRKZ0cA5KLBAXmWi-61" value="&lt;span style=&quot;font-size: 16px;&quot;&gt;Mark client as errored if not responding&lt;/span&gt;" style="text;strokeColor=none;fillColor=none;align=left;verticalAlign=middle;spacingLeft=4;spacingRight=4;overflow=hidden;points=[[0,0.5],[1,0.5]];portConstraint=eastwest;rotatable=0;whiteSpace=wrap;html=1;" vertex="1" parent="jMQMwRKZ0cA5KLBAXmWi-47">
          <mxGeometry y="70" width="240" height="40" as="geometry" />
        </mxCell>
        <mxCell id="jMQMwRKZ0cA5KLBAXmWi-62" value="&lt;span style=&quot;font-size: 16px;&quot;&gt;Delete client if not responding to BYE&lt;/span&gt;" style="text;strokeColor=none;fillColor=none;align=left;verticalAlign=middle;spacingLeft=4;spacingRight=4;overflow=hidden;points=[[0,0.5],[1,0.5]];portConstraint=eastwest;rotatable=0;whiteSpace=wrap;html=1;" vertex="1" parent="jMQMwRKZ0cA5KLBAXmWi-47">
          <mxGeometry y="110" width="240" height="40" as="geometry" />
        </mxCell>
        <mxCell id="jMQMwRKZ0cA5KLBAXmWi-49" value="&lt;span style=&quot;font-size: 16px;&quot;&gt;Reads all UDP buffered messages and checks if they are timeouted, if so then retransmits them. If retransmission count exceeds initiates client close (or deletes him directly if didn&#39;t answer to BYE messge&lt;/span&gt;" style="text;html=1;align=left;verticalAlign=middle;whiteSpace=wrap;rounded=0;" vertex="1" parent="1">
          <mxGeometry x="90" y="660" width="240" height="150" as="geometry" />
        </mxCell>
        <mxCell id="jMQMwRKZ0cA5KLBAXmWi-50" style="edgeStyle=orthogonalEdgeStyle;rounded=0;orthogonalLoop=1;jettySize=auto;html=1;exitX=1;exitY=0.5;exitDx=0;exitDy=0;" edge="1" parent="1" source="jMQMwRKZ0cA5KLBAXmWi-16" target="jMQMwRKZ0cA5KLBAXmWi-47">
          <mxGeometry relative="1" as="geometry">
            <Array as="points">
              <mxPoint x="350" y="605" />
              <mxPoint x="350" y="650" />
              <mxPoint x="70" y="650" />
              <mxPoint x="70" y="875" />
            </Array>
          </mxGeometry>
        </mxCell>
        <mxCell id="jMQMwRKZ0cA5KLBAXmWi-51" value="&lt;div style=&quot;font-family: &amp;quot;Droid Sans Mono&amp;quot;, &amp;quot;monospace&amp;quot;, monospace; font-size: 14px; line-height: 19px; white-space: pre;&quot;&gt;&lt;div style=&quot;color: rgb(204, 204, 204); background-color: rgb(31, 31, 31); line-height: 19px;&quot;&gt;&lt;span style=&quot;color: #dcdcaa;&quot;&gt;execute_msg()&lt;/span&gt;&lt;/div&gt;&lt;/div&gt;" style="swimlane;fontStyle=0;childLayout=stackLayout;horizontal=1;startSize=30;horizontalStack=0;resizeParent=1;resizeParentMax=0;resizeLast=0;collapsible=1;marginBottom=0;whiteSpace=wrap;html=1;" vertex="1" parent="1">
          <mxGeometry x="730" y="500" width="240" height="70" as="geometry" />
        </mxCell>
        <mxCell id="jMQMwRKZ0cA5KLBAXmWi-52" value="&lt;span style=&quot;font-size: 16px;&quot;&gt;Execute message&#39;s purpose&lt;/span&gt;" style="text;strokeColor=none;fillColor=none;align=left;verticalAlign=middle;spacingLeft=4;spacingRight=4;overflow=hidden;points=[[0,0.5],[1,0.5]];portConstraint=eastwest;rotatable=0;whiteSpace=wrap;html=1;" vertex="1" parent="jMQMwRKZ0cA5KLBAXmWi-51">
          <mxGeometry y="30" width="240" height="40" as="geometry" />
        </mxCell>
        <mxCell id="jMQMwRKZ0cA5KLBAXmWi-54" value="&lt;span style=&quot;font-size: 16px;&quot;&gt;Processes message: authorizes clients, reassigns clients to another channel, notify clients if someone joins or leaves their channel, forwards message to channel, sends errors and marks clients as errored if needed&lt;/span&gt;" style="text;html=1;align=left;verticalAlign=middle;whiteSpace=wrap;rounded=0;" vertex="1" parent="1">
          <mxGeometry x="730" y="350" width="240" height="140" as="geometry" />
        </mxCell>
        <mxCell id="jMQMwRKZ0cA5KLBAXmWi-60" style="edgeStyle=orthogonalEdgeStyle;rounded=0;orthogonalLoop=1;jettySize=auto;html=1;exitX=1;exitY=0.5;exitDx=0;exitDy=0;" edge="1" parent="1" source="jMQMwRKZ0cA5KLBAXmWi-58" target="jMQMwRKZ0cA5KLBAXmWi-51">
          <mxGeometry relative="1" as="geometry">
            <Array as="points">
              <mxPoint x="1010" y="900" />
              <mxPoint x="1010" y="590" />
              <mxPoint x="690" y="590" />
              <mxPoint x="690" y="540" />
            </Array>
          </mxGeometry>
        </mxCell>
        <mxCell id="jMQMwRKZ0cA5KLBAXmWi-63" value="&lt;div style=&quot;font-family: &amp;quot;Droid Sans Mono&amp;quot;, &amp;quot;monospace&amp;quot;, monospace; font-size: 14px; line-height: 19px; white-space: pre;&quot;&gt;&lt;div style=&quot;color: rgb(204, 204, 204); background-color: rgb(31, 31, 31); line-height: 19px;&quot;&gt;&lt;span style=&quot;color: #dcdcaa;&quot;&gt;read_msg()&lt;/span&gt;&lt;/div&gt;&lt;/div&gt;" style="swimlane;fontStyle=0;childLayout=stackLayout;horizontal=1;startSize=30;horizontalStack=0;resizeParent=1;resizeParentMax=0;resizeLast=0;collapsible=1;marginBottom=0;whiteSpace=wrap;html=1;" vertex="1" parent="1">
          <mxGeometry x="1250" y="280" width="240" height="150" as="geometry" />
        </mxCell>
        <mxCell id="jMQMwRKZ0cA5KLBAXmWi-71" value="&lt;span style=&quot;font-size: 16px;&quot;&gt;Read message.&lt;/span&gt;" style="text;strokeColor=none;fillColor=none;align=left;verticalAlign=middle;spacingLeft=4;spacingRight=4;overflow=hidden;points=[[0,0.5],[1,0.5]];portConstraint=eastwest;rotatable=0;whiteSpace=wrap;html=1;" vertex="1" parent="jMQMwRKZ0cA5KLBAXmWi-63">
          <mxGeometry y="30" width="240" height="40" as="geometry" />
        </mxCell>
        <mxCell id="jMQMwRKZ0cA5KLBAXmWi-66" value="&lt;span style=&quot;font-size: 16px;&quot;&gt;Parse message&lt;/span&gt;" style="text;strokeColor=none;fillColor=none;align=left;verticalAlign=middle;spacingLeft=4;spacingRight=4;overflow=hidden;points=[[0,0.5],[1,0.5]];portConstraint=eastwest;rotatable=0;whiteSpace=wrap;html=1;" vertex="1" parent="jMQMwRKZ0cA5KLBAXmWi-63">
          <mxGeometry y="70" width="240" height="40" as="geometry" />
        </mxCell>
        <mxCell id="jMQMwRKZ0cA5KLBAXmWi-64" value="&lt;span style=&quot;font-size: 16px;&quot;&gt;Log read message&lt;/span&gt;" style="text;strokeColor=none;fillColor=none;align=left;verticalAlign=middle;spacingLeft=4;spacingRight=4;overflow=hidden;points=[[0,0.5],[1,0.5]];portConstraint=eastwest;rotatable=0;whiteSpace=wrap;html=1;" vertex="1" parent="jMQMwRKZ0cA5KLBAXmWi-63">
          <mxGeometry y="110" width="240" height="40" as="geometry" />
        </mxCell>
        <mxCell id="jMQMwRKZ0cA5KLBAXmWi-65" value="&lt;span style=&quot;font-size: 16px;&quot;&gt;Isolation point for all message reads. Logs every read message. Returns parsed message or error&lt;/span&gt;" style="text;html=1;align=left;verticalAlign=middle;whiteSpace=wrap;rounded=0;" vertex="1" parent="1">
          <mxGeometry x="1250" y="200" width="240" height="70" as="geometry" />
        </mxCell>
        <mxCell id="jMQMwRKZ0cA5KLBAXmWi-67" value="&lt;div style=&quot;font-family: &amp;quot;Droid Sans Mono&amp;quot;, &amp;quot;monospace&amp;quot;, monospace; font-size: 14px; line-height: 19px; white-space: pre;&quot;&gt;&lt;div style=&quot;color: rgb(204, 204, 204); background-color: rgb(31, 31, 31); line-height: 19px;&quot;&gt;&lt;span style=&quot;color: #dcdcaa;&quot;&gt;send_msg()&lt;/span&gt;&lt;/div&gt;&lt;/div&gt;" style="swimlane;fontStyle=0;childLayout=stackLayout;horizontal=1;startSize=30;horizontalStack=0;resizeParent=1;resizeParentMax=0;resizeLast=0;collapsible=1;marginBottom=0;whiteSpace=wrap;html=1;" vertex="1" parent="1">
          <mxGeometry x="1250" y="540" width="240" height="190" as="geometry" />
        </mxCell>
        <mxCell id="jMQMwRKZ0cA5KLBAXmWi-69" value="&lt;span style=&quot;font-size: 16px;&quot;&gt;Compose message&lt;/span&gt;" style="text;strokeColor=none;fillColor=none;align=left;verticalAlign=middle;spacingLeft=4;spacingRight=4;overflow=hidden;points=[[0,0.5],[1,0.5]];portConstraint=eastwest;rotatable=0;whiteSpace=wrap;html=1;" vertex="1" parent="jMQMwRKZ0cA5KLBAXmWi-67">
          <mxGeometry y="30" width="240" height="40" as="geometry" />
        </mxCell>
        <mxCell id="jMQMwRKZ0cA5KLBAXmWi-72" value="&lt;span style=&quot;font-size: 16px;&quot;&gt;Send message&lt;/span&gt;" style="text;strokeColor=none;fillColor=none;align=left;verticalAlign=middle;spacingLeft=4;spacingRight=4;overflow=hidden;points=[[0,0.5],[1,0.5]];portConstraint=eastwest;rotatable=0;whiteSpace=wrap;html=1;" vertex="1" parent="jMQMwRKZ0cA5KLBAXmWi-67">
          <mxGeometry y="70" width="240" height="40" as="geometry" />
        </mxCell>
        <mxCell id="jMQMwRKZ0cA5KLBAXmWi-68" value="&lt;span style=&quot;font-size: 16px;&quot;&gt;Log written message&lt;/span&gt;" style="text;strokeColor=none;fillColor=none;align=left;verticalAlign=middle;spacingLeft=4;spacingRight=4;overflow=hidden;points=[[0,0.5],[1,0.5]];portConstraint=eastwest;rotatable=0;whiteSpace=wrap;html=1;" vertex="1" parent="jMQMwRKZ0cA5KLBAXmWi-67">
          <mxGeometry y="110" width="240" height="40" as="geometry" />
        </mxCell>
        <mxCell id="jMQMwRKZ0cA5KLBAXmWi-73" value="&lt;span style=&quot;font-size: 16px;&quot;&gt;Add to buffer (if UDP)&lt;/span&gt;" style="text;strokeColor=none;fillColor=none;align=left;verticalAlign=middle;spacingLeft=4;spacingRight=4;overflow=hidden;points=[[0,0.5],[1,0.5]];portConstraint=eastwest;rotatable=0;whiteSpace=wrap;html=1;" vertex="1" parent="jMQMwRKZ0cA5KLBAXmWi-67">
          <mxGeometry y="150" width="240" height="40" as="geometry" />
        </mxCell>
        <mxCell id="jMQMwRKZ0cA5KLBAXmWi-70" value="&lt;span style=&quot;font-size: 16px;&quot;&gt;Isolation point for all message writes. Logs every written message. Composes message. If UDP saves message to buffer&lt;/span&gt;" style="text;html=1;align=left;verticalAlign=middle;whiteSpace=wrap;rounded=0;" vertex="1" parent="1">
          <mxGeometry x="1250" y="440" width="240" height="90" as="geometry" />
        </mxCell>
        <mxCell id="jMQMwRKZ0cA5KLBAXmWi-75" style="edgeStyle=orthogonalEdgeStyle;rounded=0;orthogonalLoop=1;jettySize=auto;html=1;exitX=1;exitY=0.5;exitDx=0;exitDy=0;" edge="1" parent="1" source="jMQMwRKZ0cA5KLBAXmWi-74" target="jMQMwRKZ0cA5KLBAXmWi-63">
          <mxGeometry relative="1" as="geometry" />
        </mxCell>
        <mxCell id="jMQMwRKZ0cA5KLBAXmWi-74" value="&lt;font style=&quot;font-size: 16px;&quot;&gt;Any message read&lt;/font&gt;" style="rounded=0;whiteSpace=wrap;html=1;" vertex="1" parent="1">
          <mxGeometry x="1050" y="325" width="120" height="60" as="geometry" />
        </mxCell>
        <mxCell id="jMQMwRKZ0cA5KLBAXmWi-77" style="edgeStyle=orthogonalEdgeStyle;rounded=0;orthogonalLoop=1;jettySize=auto;html=1;exitX=1;exitY=0.5;exitDx=0;exitDy=0;" edge="1" parent="1" source="jMQMwRKZ0cA5KLBAXmWi-76" target="jMQMwRKZ0cA5KLBAXmWi-67">
          <mxGeometry relative="1" as="geometry" />
        </mxCell>
        <mxCell id="jMQMwRKZ0cA5KLBAXmWi-76" value="&lt;font style=&quot;font-size: 16px;&quot;&gt;Any message send&lt;/font&gt;" style="rounded=0;whiteSpace=wrap;html=1;" vertex="1" parent="1">
          <mxGeometry x="1050" y="605" width="120" height="60" as="geometry" />
        </mxCell>
      </root>
    </mxGraphModel>
  </diagram>
</mxfile>
